<?xml version="1.0" encoding="UTF-8"?>
<svg width="100pt" height="100pt" version="1.1" viewBox="0 0 100 100" xmlns="http://www.w3.org/2000/svg">
 <g>
  <path d="m61 12.5c-0.53125-0.15625-1.1016-0.09375-1.5859 0.17188-0.48437 0.26562-0.84375 0.71484-0.99609 1.2461l-20.832 70.832h-0.003907c-0.32031 1.1523 0.35156 2.3438 1.5 2.668 1.1523 0.32031 2.3477-0.35156 2.668-1.5l20.832-70.832v-0.003907c0.15234-0.55078 0.066407-1.1445-0.23438-1.6328-0.29688-0.48828-0.78516-0.83203-1.3477-0.94922z"/>
  <path d="m28.625 25.668c-0.82422-0.80078-2.1328-0.80078-2.957 0l-25 22.918v-0.003907c-0.42578 0.40234-0.66406 0.96094-0.66406 1.543s0.23828 1.1406 0.66406 1.543l25 22.918v-0.003907c0.85156 0.78516 2.1758 0.72656 2.957-0.125 0.78125-0.85156 0.72656-2.1758-0.125-2.957l-23.332-21.5 23.332-21.375c0.83594-0.78906 0.89062-2.1016 0.125-2.957z"/>
  <path d="m99.332 48.457-25-22.918v0.003907c-0.85156-0.78516-2.1758-0.72656-2.957 0.125-0.78125 0.85156-0.72656 2.1758 0.125 2.957l23.332 21.375-23.332 21.375c-1.875 1.707 0.5 5.207 3.168 2.75l25-22.918c0.21875-0.36328 0.33203-0.78125 0.33203-1.207-0.007812-0.58203-0.24609-1.1367-0.66797-1.543z"/>
 </g>
</svg>
