<?xml version="1.0" encoding="UTF-8"?>
<svg width="100pt" height="100pt" version="1.1" viewBox="0 0 100 100" xmlns="http://www.w3.org/2000/svg">
 <path d="m86.5 41c-4.8008 0-8.8008 3.8008-9 8.6016h-11c-0.10156-3.6016-1.3008-7-3.3008-9.6992l18.5-18.301c1.3984 0.89844 3 1.3984 4.8008 1.3984 5 0 9-4 9-9s-4-9-9-9-9 4-9 9c0 1.6992 0.5 3.3984 1.3984 4.8008l-18.5 18.199c-3-2.5-6.8008-4-10.898-4-4 0-7.6016 1.3984-10.5 3.6992l-17.898-17.898c0.89844-1.3984 1.3984-3 1.3984-4.8008 0-5-4-9-9-9s-9 4-9 9 4 9 9 9c1.8008 0 3.3984-0.5 4.8008-1.3984l17.898 17.898c-2.3008 2.8984-3.6992 6.5-3.6992 10.5 0 3.8984 1.3008 7.5 3.6016 10.398l-17.801 18c-1.3984-0.89844-3-1.3984-4.8008-1.3984-5 0-9 4-9 9s4 9 9 9 9-4 9-9c0-1.8008-0.5-3.3984-1.3984-4.8008l17.801-17.898c1.8984 1.5 4.1016 2.6016 6.5 3.1992l0.80078 10.199c-3.3008 1.3008-5.6016 4.6016-5.6016 8.3008 0 5 4 9 9 9s9-4 9-9c0-4.8008-3.6992-8.6992-8.3984-9l-0.69922-9h0.10156c8.1992 0 15-5.6992 16.602-13.398h12.102c1.3984 3.1992 4.6016 5.3984 8.1992 5.3984 5 0 9-4 9-9-0.007812-5-4.0078-9-9.0078-9zm-32 44c0 2.8008-2.1992 5-5 5s-5-2.1992-5-5 2.1992-5 5-5 5 2.1992 5 5zm32-76c2.8008 0 5 2.1992 5 5s-2.1992 5-5 5-5-2.1992-5-5 2.1992-5 5-5zm-78 5c0-2.8008 2.1992-5 5-5s5 2.1992 5 5-2.1992 5-5 5-5-2.1992-5-5zm5 77c-2.8008 0-5-2.1992-5-5s2.1992-5 5-5 5 2.1992 5 5-2.1992 5-5 5zm36-28c-7.1992 0-13-5.8008-13-13s5.8008-13 13-13 13 5.8008 13 13-5.8008 13-13 13zm37-8c-2.8008 0-5-2.1992-5-5s2.1992-5 5-5 5 2.1992 5 5-2.1992 5-5 5z"/>
</svg>
