<?xml version="1.0" encoding="UTF-8"?>
<svg width="100pt" height="100pt" version="1.1" viewBox="0 0 100 100" xmlns="http://www.w3.org/2000/svg">
 <path d="m94.398 41.602c0-4.3984-2.6016-8.3984-6.6016-10.199-1-6.1992-6.1016-11-12.301-11.5-1.6992-3.5-5.3008-5.8008-9.3008-5.8008-0.5 0-1 0.10156-1.5 0.10156h-0.10156c-0.5 0.10156-1.1016 0.19922-1.6016 0.39844-1.9922-1.6016-4.4922-2.6016-7.0938-2.6016-2.1016 0-4.1992 0.60156-5.8984 1.8008-1.8008-0.80078-3.8008-1.1992-5.8984-1.1992-4.1016 0-8 1.6992-10.699 4.8008-0.89844-0.19922-1.6992-0.30078-2.6016-0.30078-3.6016 0-6.8984 1.8008-8.8008 4.8984h-0.39844-0.5c-0.19922 0-0.39844 0.10156-0.60156 0.10156-0.19922 0-0.30078 0.10156-0.5 0.10156s-0.39844 0.10156-0.60156 0.19922c-0.19922 0-0.30078 0.10156-0.5 0.10156-0.19922 0.10156-0.39844 0.10156-0.5 0.19922-0.19922 0.10156-0.39844 0.10156-0.5 0.19922-0.10156 0.10156-0.30078 0.10156-0.39844 0.19922-0.19922 0.10156-0.39844 0.19922-0.60156 0.30078-3.5 1.8984-5.8984 5.6016-6.1992 9.8008v0.10156c-3.1992 3-5 7.3008-5 11.699 0 8.8984 7.3008 16.199 16.199 16.199 0.89844 0 1.8984-0.10156 2.8008-0.19922 1.1992 0.39844 2.5 0.60156 3.8008 0.69922 2.6016 6.3984 7.8008 9.8008 14.898 9.8008 6.8008 0 15 6.8984 15 15v1.4961h11.402l-1.3008-9.3008c7.8984 0.80078 15.398-4.3008 17.398-12.199 0.30078-1.3984 0.5-2.8008 0.5-4.1016 4.6992-1.6992 8-6.1992 8-11.301 0-1.6992-0.30078-3.3008-1-4.8008 0.60156-1.4961 1-3.0977 1-4.6953zm-4.2969 5.3984c0.69922 1.3008 1 2.6016 1 4.1016 0 3.3984-2 6.5-5.1016 7.8984-1.3008-5.8984-5.8984-10.699-11.801-12.199-0.89844-0.19922-1.8008 0.30078-2 1.1992s0.30078 1.8008 1.1992 2c5.3008 1.3008 9.1992 5.8008 9.6992 11.199 0.19922 1.5 0 3-0.30078 4.5-1.7969 7-8.7969 11.199-15.797 9.4023l-2.3008-0.60156 1.3984 10.199h-4.6016c-1-9.3984-10.398-16.699-18.199-16.699-5.3984 0-9.1992-2.1992-11.398-6.6016 0-0.10156 0-0.19922-0.10156-0.30078-1.6992-3.5-0.19922-7.8008 3.3984-9.5 0.80078-0.39844 1.1992-1.3984 0.80078-2.1992-0.39844-0.80078-1.3984-1.1992-2.1992-0.80078-3.8008 1.8008-5.8984 5.6016-5.8984 9.5-0.89844-0.10156-1.8008-0.30078-2.6016-0.60156l-0.39844-0.19922-0.39844 0.10156c-0.80078 0.19922-1.6992 0.30078-2.6016 0.30078-7.1016 0-13-5.8008-13-13 0-2.6016 0.80078-5.1992 2.3008-7.3008 1.1992 3.8008 4.3984 6.8008 8.3008 7.8008-0.30078 0.5-0.5 1-0.60156 1.5-0.39844 1.8008-0.19922 3.6016 0.80078 5.1992 0.30078 0.5 0.80078 0.80078 1.3984 0.80078 0.30078 0 0.60156-0.10156 0.80078-0.19922 0.80078-0.5 1-1.5 0.60156-2.1992-0.5-0.80078-0.60156-1.8008-0.39844-2.6992 0.19922-0.89844 0.80078-1.6992 1.6016-2.1992s1-1.5 0.60156-2.1992c-0.39844-0.60156-1.1016-0.89844-1.8008-0.69922-4.6992-0.10156-8.6016-4-8.6016-8.6992 0-4.8008 3.8984-8.6992 8.6992-8.6992h0.19922l1.3008 0.10156 0.5-1c1.1992-2.5 3.6992-4 6.3984-4 0.89844 0 1.6992 0.19922 2.6016 0.5l1.1016 0.39844 0.69922-1c2.1016-2.8008 5.3984-4.3984 8.8984-4.3984 1.8008 0 3.6992 0.5 5.3008 1.3008l1 0.5 0.80078-0.69922c1.3008-1.1016 2.8984-1.6992 4.6016-1.6992 1.3984 0 2.8008 0.39844 3.8984 1.1992-2.3984 1.8984-4 4.8008-4 8.1016 0 0.89844 0.69922 1.6016 1.6016 1.6016 0.89844 0 1.6016-0.69922 1.6016-1.6016 0-2.6992 1.5-5 3.6016-6.1992l0.5-0.19922c1-0.39844 2-0.69922 3-0.69922 3 0 5.6016 1.8984 6.6992 4.6992l0.39844 1.1016h1.1016c5.3984 0 9.8984 4.3008 10.301 9.6016l0.10156 1.1016 1 0.30078c3.1992 1.1016 5.3984 4.1016 5.3984 7.5 0 1.3008-0.30078 2.6992-1 3.8008l-0.39844 0.80078zm-34.402 8.3008c0-3-1.5-5.8008-4-7.5-4.3008-2-7.3008-6.1016-7.8984-10.801-0.10156-0.69922 0.39844-1.3984 1.1016-1.5 0.69922-0.10156 1.3984 0.39844 1.5 1.1016 0.60156 4.3008 3.5 7.8984 7.6016 9.3008 2.8984 1 6 0.80078 8.8008-0.5 2.8008-1.3008 4.8008-3.6992 5.8008-6.6016 0.19922-0.69922 1-1 1.6992-0.80078 0.69922 0.19922 1 1 0.80078 1.6992-1.1992 3.6016-3.8008 6.3984-7.1992 8-1.8984 0.89844-4 1.3984-6.1016 1.3984-0.39844 0-0.80078 0-1.3008-0.10156 1.1016 1.8008 1.8008 3.8984 1.8008 6.1992 0 0.69922-0.60156 1.3008-1.3008 1.3008-0.70312 0.003906-1.3047-0.49609-1.3047-1.1953zm24.699-15c0 0.69922-0.60156 1.3008-1.3008 1.3008-0.69922 0-1.3008-0.60156-1.3008-1.3008 0-5.8984-4.8008-10.699-10.699-10.699-0.69922 0-1.3008-0.60156-1.3008-1.3008s0.60156-1.3008 1.3008-1.3008c7.3008 0 13.301 6 13.301 13.301zm-34.398-13.402c0-0.69922 0.60156-1.3008 1.3008-1.3008 5.6992 0 10.398 4.6016 10.398 10.398 0 0.69922-0.60156 1.3008-1.3008 1.3008-0.69922 0-1.3008-0.60156-1.3008-1.3008 0-4.3008-3.5-7.8008-7.8008-7.8008-0.69531 0.003907-1.2969-0.59375-1.2969-1.2969zm-3.1016 29.703c-0.19922 0.39844-0.69922 0.60156-1.1016 0.60156-0.19922 0-0.5-0.10156-0.69922-0.19922-0.60156-0.39844-0.80078-1.1992-0.39844-1.8008 2.1992-3.5 1.1016-8.1016-2.3984-10.301-0.60156-0.39844-0.80078-1.1992-0.39844-1.8008 0.39844-0.60156 1.1992-0.80078 1.8008-0.39844 4.6953 2.9961 6.0977 9.1953 3.1953 13.898zm-1.1992-23c-2 0-3.8008-0.89844-5.1992-2.1992-2.3008 3.3008-6.1016 5.1016-9.8984 5.1016-2 0-4.1016-0.5-6-1.6016-0.60156-0.39844-0.80078-1.1992-0.5-1.8008 0.39844-0.60156 1.1992-0.80078 1.8008-0.5 4.5 2.6016 10.301 1.1016 13-3.5-0.5-1.1016-0.80078-2.3008-0.80078-3.5 0-0.69922 0.60156-1.3008 1.3008-1.3008 0.69922 0 1.3008 0.60156 1.3008 1.3008-0.10156 2.8008 2.1992 5.1992 5 5.3008 0.69922 0 1.3008 0.60156 1.3008 1.3008-0.003906 0.89844-0.60547 1.3984-1.3047 1.3984zm30.5 25.398c0.60156 0.39844 0.69922 1.1992 0.30078 1.8008-2.5 3.6016-6.5 5.6016-10.602 5.6016-2.5 0-5-0.69922-7.1992-2.1992-0.60156-0.39844-0.69922-1.1992-0.30078-1.8008 0.39844-0.60156 1.1992-0.69922 1.8008-0.30078 2.3008 1.5 5 2.1016 7.6992 1.6016 2.6992-0.5 5-2 6.6016-4.3008 0.30078-0.60156 1.1016-0.80078 1.6992-0.40234z"/>
</svg>
